<svg height="38" viewBox="0 0 258 38" width="258" xmlns="http://www.w3.org/2000/svg"><g fill="none" fill-rule="evenodd" transform="translate(1 .5)"><g fill-rule="nonzero"><path d="m2.153 2.662h115.012v31.744h-115.012z" fill="#dd9329"/><path d="m23.5867544 23.0662844c-.0648844-.0669324-.0992506-.15783-.0949339-.2510969v-10.2083894c-.003025-.0943472.0310765-.1860996.0949339-.2554262.0638303-.0687831.1545448-.1059787.2481227-.1017375h.330111c.1338049-.0002466.2577465.070573.3257958.186158l5.7327119 8.7905576v-8.6195519c-.0038441-.0940829.0294994-.1858825.0927763-.2554262.0641648-.0682956.1546463-.1053957.2481226-.1017375h.2804865c.096818-.0069894.1921728.0267289.2632258.093079.0660288.0714713.1002918.1667833.0949339.2640847v10.193237c.0031306.095012-.0309467.1874765-.0949339.2575908-.0649061.0713793-.1584552.1095574-.2545954.1039022h-.340899c-.1344845.0006931-.2589431-.0712488-.3257958-.1883227l-5.7176088-8.7580881v8.6000702c.0039919.0944749-.0329929.1860546-.1014066.2510969-.0706873.0626291-.1624893.0959095-.256753.0930791h-.2783289c-.0911346.0034574-.1798088-.030099-.2459651-.0930791zm15.2066818 0c-.0634442-.0677017-.0969057-.1582646-.0927763-.2510969v-10.2235418c-.0047225-.0935705.0287811-.1850287.0927763-.2532616.0669344-.0645315.1575929-.0982473.2502802-.093079h.293432c.0926085-.0046479.1830677.0289938.2502803.093079.0628985.0671687.0963185.1568396.0927763.2489323v10.2278711c.0041294.0928323-.0293321.1833952-.0927763.2510969-.0677416.0632289-.157827.0967316-.2502803.0930791h-.2848016c-.0954656.0065584-.1893232-.0271836-.2589106-.0930791zm8.472849 0c-.0643217-.0671528-.0979278-.158107-.0927763-.2510969v-10.2235418c-.0064751-.0925462.0273561-.1833639.0927437-.2489649.0653877-.0656011.1559101-.0995427.2481552-.0930464h.2955896c.0920329-.0050873.1819944.0286603.2481226.093079.0645473.0662669.0989069.1563634.0949339.2489323v9.6325981h5.355134c.097217-.0103565.1938905.0239308.2630198.0932857.0691293.0693548.1033051.1663438.0929822.2638781v.2337799c.005176.0946766-.0320029.1867366-.1014066.2510969-.069698.0630858-.1607435.0971458-.2545954.0953193h-5.9980953c-.0906191.0017357-.1782703-.0325053-.2438074-.0953193zm13.4245139 0c-.0643217-.0671528-.0979278-.158107-.0927763-.2510969v-10.2083894c-.0038442-.0940829.0294994-.1858825.0927763-.2554262.0641648-.0682956.1546463-.1053957.2481226-.1017375h6.0585077c.0975692-.0110664.1948698.0229058.2645105.0923529.0696408.0694471.1040898.1668582.0936492.2648108v.2337799c.0037076.0944253-.0332315.1858916-.1014067.251097-.0706872.062629-.1624892.0959094-.256753.093079h-5.4198616v3.9742585h5.0789627c.096818-.0069894.1921728.0267289.2632258.093079.0660288.0714713.1002918.1667833.0949338.2640847v.2337799c.0037076.0944253-.0332314.1858916-.1014066.251097-.0706872.062629-.1624893.0959094-.256753.093079h-5.0789627v4.1301117h5.5450018c.096818-.0069893.1921727.026729.2632257.0930791.0660288.0714713.1002918.1667833.0949339.2640847v.2337799c.0039919.0944749-.0329929.1860546-.1014066.2510969-.0706873.0626291-.1624893.0959095-.256753.0930791h-6.1836479c-.0917932.0035538-.1811724-.0299753-.2481226-.0930791zm14.9089346-.1493593c-.5379771-.2205854-1.0094191-.5779318-1.367911-1.0368572-.3039695-.394207-.4801777-.8724283-.5048756-1.3702101.0006163-.0821842.0349558-.160483.0949339-.2164628.0610325-.0627291.1457135-.0965547.2330195-.0930791h.3106927c.1791381-.0061819.3304611.1321828.3408989.3117066.1009391.5321361.4122532 1.0006309.8630353 1.2987772.4962453.3723162 1.2111262.5591958 2.1446427.5606389.9838603 0 1.7160019-.1796642 2.1964248-.5389926.4690383-.3453129.736624-.901696.7141617-1.4849353.0140216-.3579167-.1113333-.7072609-.3495293-.974083-.2883366-.292397-.6345061-.5209802-1.016224-.6710349-.44734-.202032-1.1197883-.4473566-2.017345-.7359738-.6464099-.1962285-1.2733427-.4520228-1.8727866-.764114-.4098477-.2101241-.7556799-.5271744-1.0011209-.9178026-.2331382-.4239491-.3465299-.9036941-.3279534-1.387527-.0046183-.5112259.1458832-1.0117662.4315176-1.4351489.3095178-.4449958.7380871-.7931722 1.2362981-1.0043878.6089213-.2582912 1.2658386-.3830183 1.9267263-.3658222.6804725-.0181913 1.3557687.1233869 1.9720356.4134441.4980214.2328461.9265152.5925822 1.2427708 1.043351.2635985.3740507.4195974.813621.450936 1.2706371.0013767.0857612-.0330264.1681988-.0948964.2273932s-.1455787.0897608-.2308995.0843134h-.3106927c-.0773867-.0018314-.1524852-.0266948-.2157588-.0714328-.0781758-.0549105-.1248527-.144532-.1251401-.2402738-.0699437-.5321607-.3750448-1.0044241-.8306715-1.2857895-.5525095-.3548222-1.1999921-.5315726-1.8555258-.5065231-.7983077 0-1.4326386.1558533-1.9029929.4675598-.4698422.3061423-.7399683.8415475-.7076889 1.4026795-.0143646.3620207.0986753.7175725.3193231 1.0043877.2598503.3005939.586532.5356528.953654.6861874.6147052.2635624 1.2426977.4947703 1.8814169.6926812.6825245.2047457 1.3471375.465377 1.9871387.7792663.4272355.2096486.7974146.5201282 1.0787941.9048149.2577373.4133977.3827563.8962158.3581597 1.3831978.0369185.8579409-.353667 1.6781697-1.0421151 2.1884397-.6918666.5267263-1.6440822.789368-2.8566468.7879249-.7226547.0144857-1.4402225-.1241854-2.1058061-.4069502zm13.0080994.1493593c-.0648845-.0669324-.0992507-.15783-.0949339-.2510969v-10.2083894c-.0030251-.0943472.0310764-.1860996.0949339-.2554262.0638302-.0687831.1545447-.1059787.2481226-.1017375h.2783289c.0975691-.0110664.1948698.0229058.2645105.0923529s.1040897.1668582.0936491.2648108v4.5457205h5.9959377v-4.5457205c-.0029268-.0939375.030295-.1854016.0927763-.2554262.0641648-.0682956.1546463-.1053957.2481226-.1017375h.2804865c.0974085-.0065577.1932639.0270621.2653834.093079.0646102.0722008.0979832.1671959.0927762.2640847v10.2083894c.003992.0944749-.0329929.1860546-.1014066.2510969-.0706872.0626291-.1624893.0959095-.256753.0930791h-.2804865c-.0926484.0065714-.1835576-.0276532-.249026-.0937509-.0654683-.0660977-.0990074-.1575176-.0918729-.2504251v-4.7210554h-5.9959377v4.7210554c.003992.0944749-.0329929.1860546-.1014066.2510969-.0706873.0626291-.1624893.0959095-.256753.0930791h-.2783289c-.0918721.0040497-.1814372-.0295491-.2481226-.0930791z" fill="#fff"/><path d="m137.31323 22.9688761c-.062293-.0639017-.095145-.1510067-.090619-.2402737v-10.217048c-.00635-.0982575.029817-.1944939.099249-.2640847.069886-.064196.16205-.0983846.256753-.0952436h.388366c.140777-.008977.271684.0727808.325796.2034751l3.527656 6.8900134 3.540603-6.8900134c.059323-.126149.186783-.2057538.325795-.2034751h.373263c.097789-.0103436.195002.0241762.264532.0939331s.103938.1672878.093628.2653952v10.217048c.004227.0938832-.032847.1848937-.101407.2489323-.069886.064196-.16205.0983845-.256753.0952436h-.278329c-.095476.0111439-.190949-.0208665-.260563-.087362s-.106165-.1605951-.099754-.2568139v-8.4420524l-2.958053 5.8444978c-.076804.1969588-.270611.322516-.481143.3117065h-.343056c-.210351.0101322-.403798-.1151919-.481142-.3117065l-2.966684-5.8574855v8.4420523c.005071.0923332-.028567.1825883-.092776.2489323-.066052.0647579-.155855.0992296-.248123.0952437h-.280486c-.094109.0043204-.186197-.0282873-.256753-.0909145zm15.616623 0c-.059835-.0558938-.093501-.1344432-.092788-.2164628l.030218-.1710057 3.928968-10.1131457c.06349-.1939822.247594-.3221264.450936-.3138712h.528609c.203558-.0090009.388067.1194254.450936.3138712l3.931126 10.1131457.030218.1710057c.000713.0820196-.032953.160569-.092788.2164628-.056095.0597532-.13395.0941214-.215759.0952437h-.310693c-.079485.001984-.156703-.0266801-.215758-.0800913-.051142-.0405447-.091223-.0934159-.11651-.1536886l-.97523-2.4828292h-5.499693l-.962284 2.4936523c-.026809.0593761-.066636.1119122-.11651.1536887-.059283.0530321-.136346.0816387-.215758.0801509h-.310693c-.08737-.0003558-.1702-.0391363-.226547-.1061265zm2.20074-3.5673082h4.746694l-2.373347-6.1410519zm13.577703 3.5673082c-.064209-.0663439-.097847-.1565991-.092777-.2489323v-10.2083894c-.003488-.094677.029771-.1870196.092777-.2575908.064165-.0682956.154646-.1053957.248122-.1017375h.280487c.096985-.0053755.191987.0289993.263226.0952436.063344.0726034.094503.1679476.086303.2640847v4.0521851l4.707858-4.1777335c.081119-.0609178.166978-.1152077.256753-.1623472.103064-.0512982.217302-.0758576.332268-.0714327h.248123c.082027.0000968.16027.0346357.215759.0952436.059978.0559798.094317.1342787.094934.2164629.003036.0754229-.02598.1485943-.079831.2013105l-5.264515 4.705903 5.592468 5.160475c.058538.0567001.0916.1348296.0916.2164629s-.033062.1597628-.0916.2164629c-.056095.0597531-.13395.0941213-.215759.0952437h-.256753c-.115674.0046039-.230653-.0199554-.334426-.0714328-.089774-.0471395-.175634-.1014294-.256753-.1623472l-5.040126-4.6106593v4.5132511c.004227.0938832-.032847.1848937-.101406.2489323-.069225.0638647-.160594.0980457-.254596.0952436h-.280486c-.091311-.0000844-.178616-.0376231-.24165-.1039022zm15.271409.0086586c-.078308-.0777738-.129726-.1786686-.146716-.2878957l-2.129539-10.0373837-.030207-.1861581c.004474-.1706184.140665-.3082027.310693-.3138711h.332269c.19634 0 .310692.0800912.343056.2337799l1.816689 8.874978 1.920254-6.3250453c.055075-.2191442.256093-.3692688.481142-.3593284h.340899c.229-.0152888.436103.1359888.49193.3593284l1.926727 6.3423624 1.818846-8.8749781c.030207-.1536886.144559-.2337799.340899-.2337799h.325796c.170029.0056684.30622.1432528.310693.3138712l-.030206.186158-2.127382 10.0373838c-.018441.1092078-.0705.2098824-.148874.2878956-.082273.0623251-.184068.0930401-.286959.0865851h-.23302c-.229291.0075498-.431438-.1497844-.481142-.3744807l-2.066969-6.5783069-2.06697 6.5783069c-.044837.2277495-.250113.3875188-.481142.3744807h-.252438c-.102107-.0005057-.200728-.0373214-.278329-.1039021zm13.487084-.0086586c-.059835-.0558938-.093501-.1344432-.092788-.2164628l.030218-.1710057 3.931126-10.1131457c.062239-.1949148.247161-.3236288.450936-.3138712h.526451c.203775-.0097576.388697.1189564.450936.3138712l3.933284 10.1109811.030217.1710056c.000714.0820197-.032953.1605691-.092787.2164629-.055798.0601738-.133842.0946253-.215759.0952437h-.310693c-.079485.001984-.156703-.0266801-.215759-.0800913-.050503-.0411693-.090452-.0938664-.11651-.1536886l-.977387-2.4806646h-5.497535l-.964442 2.4936523c-.025287.0602727-.065368.1131439-.11651.1536887-.059055.0534112-.136273.0820752-.215758.0801878h-.310693c-.087369-.0003927-.1702-.0391732-.226547-.1061634zm2.205055-3.5673082h4.746694l-2.373347-6.1410519zm13.573388 3.5673082c-.064209-.0663439-.097847-.1565991-.092776-.2489323v-10.2083894c-.003489-.094677.02977-.1870196.092776-.2575908.064165-.0682956.154646-.1053957.248122-.1017375h.323639c.134246.0002037.258289.0719054.325796.1883227l5.732711 8.7905575v-8.6195519c-.003488-.094677.029771-.1870196.092777-.2575908.06383-.0687831.154544-.1059787.248122-.1017375h.289117c.097682-.0057206.193482.0286613.265384.0952436.065684.0715572.099222.1670217.092776.2640847v10.193237c.003949.0947487-.029371.1872599-.092776.2575909-.064165.0682956-.154647.1053956-.248123.1017375h-.343057c-.134365.0002413-.258613-.0715793-.325795-.1883227l-5.717609-8.7580881v8.6108934c.00478.0935438-.031485.184501-.099249.2489323-.070127.0637996-.162125.0979266-.256753.0952436h-.280487c-.095785.0035707-.188493-.0342641-.254595-.1039022zm14.132203 0c-.059835-.0558938-.093502-.1344432-.092788-.2164628l.030218-.1710057 3.931125-10.1131457c.06203-.1941091.245788-.3226278.448779-.3138712h.528609c.203775-.0097576.388697.1189564.450936.3138712l3.931125 10.1131457.030218.1710057c.000714.0820196-.032953.160569-.092788.2164628-.056094.0597532-.13395.0941214-.215758.0952437h-.310693c-.079485.001984-.156703-.0266801-.215759-.0800913-.051141-.0405447-.091222-.0934159-.11651-.1536886l-.97523-2.4828292h-5.497534l-.964442 2.4936523c-.026809.0593761-.066636.1119122-.11651.1536887-.059055.0534112-.136274.0820752-.215759.0801878h-.310693c-.087369-.0003927-.1702-.0391732-.226546-.1061634zm2.205055-3.5673082h4.746694l-2.373347-6.1410519z" fill="#404759"/></g><path d="m0 0h256v37h-256z" stroke="#404759" stroke-width=".5"/></g></svg>